<svg xmlns="http://www.w3.org/2000/svg" xmlns:xlink="http://www.w3.org/1999/xlink" viewBox="0 0 130 44"><defs><style>.cls-1{fill:none;}.cls-2{clip-path:url(#clip-path);}.cls-3{fill-rule:evenodd;}.cls-4{fill:#eb2d37;}</style><clipPath id="clip-path"><rect class="cls-1" x="-9.81" y="-15.36" width="151.91" height="73.7"/></clipPath></defs><title>img_canada</title><g id="Title"><g class="cls-2"><g class="cls-2"><path class="cls-3" d="M99.33,10.08c0-.22,0-.78-.67-.77s-5,.23-5.28.26-.53.33,0,.37,2.83.23,2.83,4v5.08c0,.06,0,.43-.06.5s-.13,0-.35-.14a7.51,7.51,0,0,0-4.08-1.3,7.39,7.39,0,0,0-7.57,7.49c0,5.38,3.82,7.94,7.77,7.94a7.06,7.06,0,0,0,3.78-1.16c.55-.33.5-.31.6.19s0,1.07,1,1,3.65-.43,4.18-.53.39-.44-.07-.49c-.31,0-2.08.16-2.08-5.29ZM96.2,26.91c-.06,4.28-1.8,5.83-3.72,5.82-3.13,0-4.78-3.75-4.78-7.33,0-4,2.21-6.61,4.58-6.47,3.12.18,3.86,2.66,3.91,7.07,0,.29,0,.91,0,.91"/><path class="cls-3" d="M32.25,10.4c.27.09,1.09.41,1.35-.21a3.25,3.25,0,0,1,.19-.43.64.64,0,0,1,.32-.26c.22-.07.46,0,.53.44.12.72.54,6.9.56,7.23a.5.5,0,1,1-1,.08c-.08-.95-2-7.23-7.19-7.12-4.65.09-7.71,5.47-7.53,12.42.17,6.49,3.3,10.07,8.44,10,4.94-.1,6.32-3.86,7-6.16.3-1,1.19-.69,1,.18a9,9,0,0,1-9.07,7.2A11.87,11.87,0,0,1,14.8,21.84C14.64,14,20.88,9.38,27,9.25a10.79,10.79,0,0,1,3.29.45c.5.15,1.93.7,1.93.7"/><path class="cls-3" d="M44.67,23.13c0,.13,0,.31,0,.39a1.76,1.76,0,0,1-1.15,1.38,21.29,21.29,0,0,1-3.66.87c-1,.23-3.8.94-3.74,3.87S39,33.52,41,33.47a5.61,5.61,0,0,0,3.58-1.29c.3-.24.28-.18.53.1a4.37,4.37,0,0,0,3.47,1.22c2.26,0,2.6-1.08,2.73-1.41s-.3-.68-.47-.28a1.33,1.33,0,0,1-1.25.84c-.43,0-1.72-.11-1.72-3.42,0,0,0-6.82,0-7.22,0-2.22-1.7-4-6.19-4-4.83,0-4.86,2.38-4.89,3s.32,1.37,1.53,1.38,1.35-1.19,1.51-1.65S40,18.73,42,18.76c1.66,0,2.69,1.46,2.7,3.53,0,.27,0,.48,0,.67,0,0,0,.15,0,.17m0,5.51c0,2.21-1.14,4-2.82,4a2.46,2.46,0,0,1-2.54-2.48,4.29,4.29,0,0,1,2.41-3.6,16,16,0,0,1,2.7-1.28h.1l.06,0s.07.1.07.35c0,.07,0,3,0,3"/><path class="cls-3" d="M78,23.13c0,.13,0,.31,0,.39a1.75,1.75,0,0,1-1.15,1.38,21.29,21.29,0,0,1-3.66.87c-1,.23-3.8.94-3.74,3.87s2.93,3.88,4.93,3.83a5.61,5.61,0,0,0,3.58-1.29c.3-.24.28-.18.53.1a4.39,4.39,0,0,0,3.47,1.22c2.26,0,2.6-1.08,2.73-1.41s-.3-.68-.47-.28a1.32,1.32,0,0,1-1.24.84c-.44,0-1.72-.11-1.73-3.42,0,0,0-6.82,0-7.22,0-2.22-1.69-4-6.19-4-4.83,0-4.86,2.38-4.89,3s.32,1.37,1.53,1.38,1.36-1.19,1.51-1.65.2-1.94,2.15-1.91c1.66,0,2.69,1.46,2.7,3.53,0,.27,0,.48,0,.67a.86.86,0,0,1,0,.17m0,5.51c0,2.21-1.14,4-2.82,4a2.46,2.46,0,0,1-2.54-2.48,4.31,4.31,0,0,1,2.41-3.6,16,16,0,0,1,2.7-1.28h.11l.06,0s.06.1.06.35c0,.07,0,3,0,3"/><path class="cls-3" d="M110.8,23.13a3.14,3.14,0,0,1,0,.39,1.73,1.73,0,0,1-1.14,1.38,21.29,21.29,0,0,1-3.66.87c-1,.23-3.8.94-3.74,3.87s2.93,3.88,4.93,3.83a5.61,5.61,0,0,0,3.58-1.29c.3-.24.28-.18.53.1a4.37,4.37,0,0,0,3.47,1.22c2.26,0,2.6-1.08,2.73-1.41s-.3-.68-.47-.28a1.33,1.33,0,0,1-1.25.84c-.43,0-1.72-.11-1.73-3.42V22c0-2.22-1.7-4-6.19-4-4.83,0-4.86,2.38-4.89,3s.32,1.37,1.53,1.38,1.35-1.19,1.51-1.65.19-1.94,2.15-1.91c1.66,0,2.69,1.46,2.7,3.53V23s0,.15,0,.17m0,5.51c0,2.21-1.14,4-2.82,4a2.46,2.46,0,0,1-2.54-2.48,4.29,4.29,0,0,1,2.41-3.6,16.12,16.12,0,0,1,2.69-1.28h.11l.06,0s.07.1.07.35c0,.07,0,3,0,3"/><path class="cls-3" d="M63.5,29.4c0,2.48-.73,3.29-1.57,3.46s-.62.53-.25.53h6.66c.54,0,.91-.35,0-.57-.59-.14-1.57-.81-1.57-3.93l0-6.09c0-1.38.15-4.86-5.28-4.86a7.21,7.21,0,0,0-4.55,1.53c-.25.2-.35.29-.46-.08s-.23-.75-.32-1-.18-.45-.71-.37-3.69.57-4.21.7-.39.35,0,.42,2.08.2,2.07,3.14,0,6.5,0,6.5c0,3.56-.74,3.88-1.39,4.06-.86.24-.46.54-.05.54h6.55c.44,0,.63-.41-.25-.55s-1.66-.64-1.64-3.44c0-.27,0-3.7,0-4.27,0-1.48-.36-6.13,3.83-6.17,2.92-.09,3.2,2.35,3.22,4Z"/><path class="cls-4" d="M107.41,14.41,106,13.2l.21-.1a.22.22,0,0,0,.07-.06.19.19,0,0,0,0-.19s-.24-.83-.24-.83l.7.15h.07a.14.14,0,0,0,.11-.11s.17-.4.17-.4.7.78.71.78a.19.19,0,0,0,.14.06h0a.13.13,0,0,0,.07-.16c0-.07-.35-1.67-.35-1.67l.49.29a.26.26,0,0,0,.15.05s.07-.05.1-.1l.52-1,.52,1a.24.24,0,0,0,.1.1.26.26,0,0,0,.15-.05l.49-.29s-.34,1.6-.35,1.67a.13.13,0,0,0,.07.16h0a.19.19,0,0,0,.14-.06s.71-.78.71-.78l.17.4c0,.06,0,.1.11.11h.07l.7-.15s-.24.81-.24.83a.19.19,0,0,0,0,.19.22.22,0,0,0,.07.06l.21.1-1.39,1.21s-.08.09,0,.24l.16.46-1.35-.28h-.09a.15.15,0,0,0-.14.16c0,.13.05,1.43.05,1.43h-.34s0-1.3,0-1.43a.15.15,0,0,0-.14-.16h-.09l-1.35.28.16-.46c0-.15,0-.2,0-.24"/><rect class="cls-4" x="101.26" y="9.28" width="3.86" height="7.72"/><rect class="cls-4" x="112.84" y="9.28" width="3.86" height="7.72"/></g></g></g></svg>