<svg xmlns="http://www.w3.org/2000/svg" xmlns:xlink="http://www.w3.org/1999/xlink" viewBox="0 0 124 124"><defs><style>.cls-1{fill:none;}.cls-2{opacity:0.15;isolation:isolate;fill:url(#pattern);}.cls-3{fill:#aedcd6;}.cls-4{fill:#4ab496;}</style><pattern id="pattern" data-name="pattern" width="89" height="89" patternTransform="matrix(0.61, 0, 0, -0.6, 48.53, 2403.05)" patternUnits="userSpaceOnUse" viewBox="0 0 89 89"><rect class="cls-1" width="89" height="89"/></pattern></defs><title>Img_wbc_logo_Login</title><g id="Title"><g id="Group_8" data-name="Group 8"><g id="Group_3" data-name="Group 3"><rect id="Rectangle_2" data-name="Rectangle 2" class="cls-2" x="21.46" y="2.02" width="53.99" height="53.7"/><g id="Group_2" data-name="Group 2"><g id="Group_1" data-name="Group 1"><path id="Path_1" data-name="Path 1" class="cls-3" d="M32.09,42.7h0A21.27,21.27,0,0,1,32,12.62l.07-.07h0a21.44,21.44,0,0,1,30.26,0h0a21.26,21.26,0,0,1,.07,30.08l-.07.07h0A21.44,21.44,0,0,1,32.09,42.7Z"/></g></g></g><g id="Group_7" data-name="Group 7"><path id="Path_2-2" data-name="Path 2-2" class="cls-4" d="M13.87,94h0a44.16,44.16,0,0,1-.15-62.44l.15-.15h0L45.27,62.7Z"/><g id="Group_6" data-name="Group 6"><g id="Group_5" data-name="Group 5"><g id="Group_4" data-name="Group 4"><path id="Path_3" data-name="Path 3" class="cls-3" d="M47.32,64.74,15.92,96,38.16,118.2a13,13,0,0,0,18.32,0L78.72,96l-31.4-31.3"/><path id="Path_4" data-name="Path 4" class="cls-3" d="M78.73,33.45,47.33,64.73,78.73,96l31.4-31.3L78.73,33.44"/><path id="Path_5" data-name="Path 5" class="cls-3" d="M110.13,2.15l-31.4,31.3,31.4,31.29a44.14,44.14,0,0,0,.15-62.43l-.15-.16"/></g></g></g></g></g></g></svg>