<svg xmlns="http://www.w3.org/2000/svg" viewBox="0 0 24 24"><defs><style>.cls-1{fill:none;}.cls-2{fill:#310e31;}</style></defs><title>ic_wbc_pass_hidden</title><g id="Title"><g id="Group_294" data-name="Group 294"><path id="Path_130-2" data-name="Path 130-2" class="cls-1" d="M0,0H24V24H0Z"/><g id="Group_294-2" data-name="Group 294-2"><path id="Path_132" data-name="Path 132" class="cls-2" d="M12,15a2.83,2.83,0,0,0,.87-.14L9.14,11.13a3,3,0,0,0,1.91,3.73A3.08,3.08,0,0,0,12,15Z"/><path id="Path_133" data-name="Path 133" class="cls-2" d="M10.25,7.33a5,5,0,0,1,6.42,2.84,5,5,0,0,1,0,3.58l2.95,2.95A11.81,11.81,0,0,0,23,12,11.77,11.77,0,0,0,8.09,5.18Z"/><path id="Path_134" data-name="Path 134" class="cls-2" d="M14.38,16.37A5,5,0,0,1,7.63,9.61L4.9,6.88A11.75,11.75,0,0,0,1,12a11.82,11.82,0,0,0,15.31,6.68h0a2.06,2.06,0,0,0,.26-.12Z"/><path id="Path_135" data-name="Path 135" class="cls-2" d="M12,9h-.08L15,12.08S15,12,15,12A3,3,0,0,0,12,9Z"/></g><rect id="Rectangle_115" data-name="Rectangle 115" class="cls-2" x="10.47" y="0.75" width="2.06" height="22.56" transform="translate(-5.14 11.66) rotate(-45)"/></g></g></svg>