<svg xmlns="http://www.w3.org/2000/svg" viewBox="0 0 24 24"><defs><style>.cls-1{font-size:14px;fill:#231f20;font-family:Lato-Thin, Lato;font-weight:200;}.cls-2{letter-spacing:-0.01em;}.cls-3{fill:none;}.cls-4{fill:#310e31;}</style></defs><title>ic_wbc_language</title><g id="Title"><text class="cls-1" transform="translate(-3.9 -6.2)">ic_wbc_langua<tspan class="cls-2" x="85.51" y="0">g</tspan><tspan x="92.5" y="0">e </tspan></text><g id="Group_87" data-name="Group 87"><path id="Path_25" data-name="Path 25" class="cls-3" d="M0,0H24V24H0Z"/><path id="Path_26" data-name="Path 26" class="cls-4" d="M12,2A10,10,0,1,0,22,12,10,10,0,0,0,12,2Zm6.93,6H16a15.73,15.73,0,0,0-1.38-3.56A8,8,0,0,1,18.92,8ZM12,4a14.21,14.21,0,0,1,1.91,4H10.09A14.21,14.21,0,0,1,12,4ZM4.26,14a7.75,7.75,0,0,1,0-4H7.64a16.66,16.66,0,0,0-.14,2,16.66,16.66,0,0,0,.14,2Zm.82,2H8a15.73,15.73,0,0,0,1.38,3.56A8,8,0,0,1,5.08,16ZM8,8H5.08A8,8,0,0,1,9.41,4.44,15.73,15.73,0,0,0,8,8Zm4,12a14.21,14.21,0,0,1-1.91-4h3.82A14.21,14.21,0,0,1,12,20Zm2.34-6H9.66a14.84,14.84,0,0,1-.16-2,14.84,14.84,0,0,1,.16-2h4.68a14.84,14.84,0,0,1,.16,2A14.84,14.84,0,0,1,14.34,14Zm.25,5.56A15.73,15.73,0,0,0,16,16h3A8,8,0,0,1,14.59,19.56ZM16.36,14a16.66,16.66,0,0,0,.14-2,16.66,16.66,0,0,0-.14-2h3.38a7.75,7.75,0,0,1,0,4Z"/></g></g></svg>