<svg xmlns="http://www.w3.org/2000/svg" viewBox="0 0 24 24"><defs><style>.cls-1{isolation:isolate;}.cls-2{fill:#310e31;}.cls-3{fill:none;}</style></defs><title>ic_wbc_pass_req</title><g id="Title"><g id="_" data-name=" "><g class="cls-1"><path class="cls-2" d="M6.89,4.61a8.73,8.73,0,0,1,.93-.71,7.57,7.57,0,0,1,1.09-.59,7.68,7.68,0,0,1,1.28-.39,7,7,0,0,1,1.49-.15,6.23,6.23,0,0,1,2,.31,4.39,4.39,0,0,1,1.53.85,4,4,0,0,1,1,1.34A4.4,4.4,0,0,1,16.52,7a4.51,4.51,0,0,1-.27,1.64,4.44,4.44,0,0,1-.69,1.21,5,5,0,0,1-.9.88l-.93.71a6.54,6.54,0,0,0-.76.65,1.27,1.27,0,0,0-.38.72l-.29,1.83H10.19l-.21-2a1.66,1.66,0,0,1,.16-1,3.35,3.35,0,0,1,.65-.82,9.92,9.92,0,0,1,.91-.71,8.59,8.59,0,0,0,.94-.75,4,4,0,0,0,.73-.91,2.43,2.43,0,0,0,.29-1.21,1.71,1.71,0,0,0-.17-.8A1.76,1.76,0,0,0,13,5.79a2,2,0,0,0-.71-.39,2.94,2.94,0,0,0-.91-.14,3.9,3.9,0,0,0-1.21.16,4.06,4.06,0,0,0-.83.35l-.59.35a.77.77,0,0,1-.42.15A.67.67,0,0,1,7.7,5.9ZM9.25,19.35a2.07,2.07,0,0,1,.14-.74,1.91,1.91,0,0,1,.4-.6,1.92,1.92,0,0,1,2.09-.4,2.1,2.1,0,0,1,.6.4,1.94,1.94,0,0,1,.41.6,1.88,1.88,0,0,1,.15.74,1.81,1.81,0,0,1-.15.74,1.94,1.94,0,0,1-.41.6,1.88,1.88,0,0,1-.6.39,1.93,1.93,0,0,1-1.49,0,1.69,1.69,0,0,1-.6-.39,1.91,1.91,0,0,1-.4-.6A2,2,0,0,1,9.25,19.35Z"/></g></g><path id="Path_130" data-name="Path 130" class="cls-3" d="M0,0H24V24H0Z"/></g></svg>