<svg xmlns="http://www.w3.org/2000/svg" viewBox="0 0 24 24"><defs><style>.cls-1{font-size:14px;fill:#231f20;font-family:Lato-Thin, Lato;font-weight:200;}.cls-2{letter-spacing:-0.01em;}.cls-3{letter-spacing:0em;}.cls-4{fill:#310e31;}</style></defs><title>ic_wbc_pass_shown</title><g id="Title"><text class="cls-1" transform="translate(-5.9 -4.2)">ic_wbc_pass_sh<tspan class="cls-2" x="92.72" y="0">o</tspan><tspan class="cls-3" x="100.39" y="0">wn</tspan></text><path id="Path_131" data-name="Path 131" class="cls-4" d="M12,4.5A11.83,11.83,0,0,0,1,12a11.82,11.82,0,0,0,22,0A11.83,11.83,0,0,0,12,4.5ZM12,17a5,5,0,1,1,5-5A5,5,0,0,1,12,17Zm0-8a3,3,0,1,0,3,3A3,3,0,0,0,12,9Z"/></g></svg>