<svg xmlns="http://www.w3.org/2000/svg" viewBox="0 0 30 30"><defs><style>.cls-1{fill:#f2ebe9;}</style></defs><title>ic_wbc_contact_us</title><g id="Title"><path id="Path_46" data-name="Path 46" class="cls-1" d="M7.06,13.22A22.42,22.42,0,0,0,16.79,23L20,19.7a1.46,1.46,0,0,1,1.5-.36,16.56,16.56,0,0,0,5.27.84,1.5,1.5,0,0,1,1.48,1.48v5.15a1.49,1.49,0,0,1-1.48,1.48A25.1,25.1,0,0,1,1.71,3.2h0A1.49,1.49,0,0,1,3.19,1.71H8.36A1.47,1.47,0,0,1,9.83,3.19a16.84,16.84,0,0,0,.84,5.27,1.46,1.46,0,0,1-.36,1.5Z"/></g></svg>