<svg xmlns="http://www.w3.org/2000/svg" xmlns:xlink="http://www.w3.org/1999/xlink" viewBox="0 0 50 50"><defs><style>.cls-1{fill:none;}.cls-2{opacity:0.15;isolation:isolate;fill:url(#pattern_2);}.cls-3{fill:#aedcd6;}.cls-4{fill:#4ab496;}</style><pattern id="pattern_2" data-name="pattern 2" width="61" height="61" patternTransform="matrix(0.4, 0, 0, -0.4, 205.06, 1594.57)" patternUnits="userSpaceOnUse" viewBox="0 0 61 61"><rect class="cls-1" width="61" height="61"/></pattern></defs><title>ic_logo_login</title><g id="Title"><g id="Group_14" data-name="Group 14"><rect id="Rectangle_8" data-name="Rectangle 8" class="cls-2" x="7.77" y="0.61" width="24.41" height="24.31"/><g id="Group_13" data-name="Group 13"><g id="Group_12" data-name="Group 12"><path id="Path_6" data-name="Path 6" class="cls-3" d="M13.13,17.93h0A8.43,8.43,0,0,1,13.1,6l0,0h0a8.5,8.5,0,0,1,12,0h0a8.44,8.44,0,0,1,0,11.93l0,0h0A8.52,8.52,0,0,1,13.13,17.93Z"/></g></g></g><path id="Path_7-2" data-name="Path 7-2" class="cls-4" d="M5.9,38.29h0a17.52,17.52,0,0,1-.06-24.77l.06-.07h0L18.36,25.87Z"/><g id="Group_16" data-name="Group 16"><g id="Group_15" data-name="Group 15"><path id="Path_8" data-name="Path 8" class="cls-3" d="M19.18,26.68,6.71,39.09l8.83,8.8a5.15,5.15,0,0,0,7.27,0l8.82-8.8L19.17,26.68"/><path id="Path_9" data-name="Path 9" class="cls-3" d="M31.64,14.26,19.17,26.68,31.64,39.09,44.1,26.68,31.64,14.26"/><path id="Path_10" data-name="Path 10" class="cls-3" d="M44.1,1.84,31.64,14.26,44.1,26.68A17.54,17.54,0,0,0,44.16,1.9l-.06-.06"/></g></g></g></svg>