<svg xmlns="http://www.w3.org/2000/svg" viewBox="0 0 24 24"><defs><style>.cls-1{fill:#310e31;}.cls-2{fill:none;}</style></defs><title>ic_wbc_notification</title><g id="Title"><g id="Group_86" data-name="Group 86"><path id="Path_23" data-name="Path 23" class="cls-1" d="M18,16V11c0-3.07-1.64-5.64-4.5-6.32V4a1.5,1.5,0,0,0-3,0v.68C7.63,5.36,6,7.92,6,11v5L4,18v1H20V18Zm-5,0H11V14h2Zm0-4H11V8h2ZM12,22a2,2,0,0,0,2-2H10A2,2,0,0,0,12,22Z"/><path id="Path_24" data-name="Path 24" class="cls-2" d="M0,0H24V24H0Z"/></g></g></svg>