<svg xmlns="http://www.w3.org/2000/svg" viewBox="0 0 30 30"><defs><style>.cls-1{fill:#f2ebe9;}</style></defs><title>ic_wbc_about_survey</title><g id="Title"><g id="Group_132" data-name="Group 132"><g id="Group_70" data-name="Group 70"><path id="Path_17" data-name="Path 17" class="cls-1" d="M18,5a2.82,2.82,0,0,1-.24,1.15,3.08,3.08,0,0,1-.66.94,3,3,0,0,1-1,.65A3,3,0,0,1,15,8a2.81,2.81,0,0,1-1.14-.24,3.52,3.52,0,0,1-.94-.65,3.2,3.2,0,0,1-.64-.94A3,3,0,0,1,12,5a3.14,3.14,0,0,1,.23-1.18,3,3,0,0,1,.64-1,3.37,3.37,0,0,1,.94-.65A3,3,0,0,1,15,2a3.14,3.14,0,0,1,1.18.23,3,3,0,0,1,1,.65,3,3,0,0,1,.66,1A3,3,0,0,1,18,5Zm0,4V29.17H12V9Z"/></g></g></g></svg>