<svg xmlns="http://www.w3.org/2000/svg" viewBox="0 0 230 44"><defs><style>.cls-1{fill:#ed1c24;}.cls-1,.cls-2{fill-rule:evenodd;}</style></defs><title>img_statcan_fip_fr</title><g id="Title"><path class="cls-1" d="M32.2,32.18s-.11-4.06-.11-4.48.33-.54.76-.43,4.23.85,4.23.85-.33-.85-.55-1.39.11-.74.22-.85S41,22.25,41,22.25l-.65-.32a.48.48,0,0,1-.21-.75c0-.21.65-2.56.65-2.56s-1.74.32-2.17.42a.5.5,0,0,1-.54-.32c-.11-.21-.54-1.28-.54-1.28s-2.17,2.35-2.17,2.46c-.43.32-.86.11-.75-.32s1.08-5.24,1.08-5.24l-1.52,1c-.43.21-.54.21-.76-.22s-1.62-3.2-1.62-3.2h0s-1.52,2.88-1.63,3.2-.43.43-.86.22l-1.52-1s1.09,4.81,1.09,5.24-.33.64-.65.32l-2.28-2.46s-.43,1.07-.54,1.28a.5.5,0,0,1-.54.32c-.44-.1-2.28-.42-2.28-.42s.76,2.35.87,2.56.11.53-.32.75l-.65.32s4.11,3.52,4.22,3.63.43.22.22.85-.55,1.39-.55,1.39,3.9-.74,4.23-.85.76,0,.76.43-.11,4.48-.11,4.48Z"/><polygon class="cls-1" points="20 34 20 10 8 10 8 34 20 34"/><polygon class="cls-1" points="56 34 56 10 44 10 44 34 56 34"/><path class="cls-2" d="M86.84,13.23c-.06-1.12-.41-3.23-4-3.23-2.45,0-3.48,1.55-3.48,3.13a2.44,2.44,0,0,0,2.16,2.38l2.07.48c1.66.39,2.15.73,2.15,1.78,0,1.45-1.66,1.71-2.64,1.71-1.3,0-2.79-.54-2.79-2.37H79.08a3.14,3.14,0,0,0,1,2.57,4.07,4.07,0,0,0,3.06,1c1.73,0,4-.67,4-3.06a2.63,2.63,0,0,0-2.3-2.7l-2.88-.66c-.59-.15-1.2-.43-1.2-1.29,0-1.53,1.45-1.77,2.31-1.77a2.2,2.2,0,0,1,2.5,2.06ZM91.4,14V13H90.22V11H89v2H88v1h1V18.9c0,.89.26,1.58,1.49,1.58.13,0,.48-.06.93-.1v-1H91c-.25,0-.74,0-.74-.58V14Zm2.31,1.21a1.46,1.46,0,0,1,1.69-1.42c1.17,0,1.73.42,1.73,1.2s-.35.84-.65.87l-2,.25a2.21,2.21,0,0,0-2.24,2.31,2.13,2.13,0,0,0,2.31,2.13,3.33,3.33,0,0,0,2.66-1.2c0,.57.21,1.13,1.31,1.13a2.21,2.21,0,0,0,.68-.14v-.9a2.17,2.17,0,0,1-.41.05c-.25,0-.41-.12-.41-.43V14.86c0-1.89-2.14-2.06-2.73-2.06-1.82,0-3,.69-3,2.45Zm3.39,2.58c0,1-1.12,1.73-2.28,1.73a1.17,1.17,0,0,1-1.34-1.28c0-.93,1-1.11,1.58-1.2,1.54-.19,1.85-.31,2-.46v1.21Zm6-3.79V13H102V11h-1.24v2h-1v1h1V18.9c0,.89.27,1.58,1.49,1.58.13,0,.48-.06.93-.1v-1h-.43c-.25,0-.75,0-.75-.58V14Zm2.48-1h-1.23v7.37h1.23V13Zm0-1.33V10.27h-1.23v1.41Zm7.24,3.43c0-.36-.18-2.31-2.81-2.31-1.45,0-2.79.73-2.79,2.35,0,1,.67,1.54,1.7,1.79l1.44.35c1.06.27,1.46.47,1.46,1.06,0,.82-.8,1.17-1.69,1.17-1.74,0-1.91-.93-2-1.51H107c0,.89.25,2.58,3.17,2.58,1.66,0,2.91-.92,2.91-2.44,0-1-.53-1.56-2.07-1.94l-1.24-.31c-1-.24-1.33-.38-1.33-1,0-.91,1.08-1,1.46-1,1.56,0,1.73.78,1.75,1.24ZM117.23,14V13h-1.18V11h-1.24v2h-1v1h1V18.9c0,.89.26,1.58,1.49,1.58.13,0,.48-.06.93-.1v-1h-.44c-.25,0-.74,0-.74-.58V14Zm2.48-1h-1.24v7.37h1.24V13Zm0-1.33V10.27h-1.24v1.41Zm7.9,1.33h-1.17v1.05h0a2.47,2.47,0,0,0-2.2-1.26c-1.95,0-3.07,1.61-3.07,3.68,0,1.76.74,4.11,3.24,4.11a2.19,2.19,0,0,0,2-1h0v3.7h1.24V13Zm-1.18,4c0,2-1.23,2.48-2,2.48-1.35,0-2-1.23-2-2.84,0-.95.09-2.76,2-2.76s2,1.92,2,3.12Zm8.94,3.34V13h-1.24v4.06c0,1.07-.47,2.45-2,2.45-.8,0-1.42-.41-1.42-1.62V13h-1.24v5.3a2.17,2.17,0,0,0,2.39,2.28,2.42,2.42,0,0,0,2.34-1.31l0,0v1.07Zm6.87-2.31a1.87,1.87,0,0,1-1.9,1.45c-1.42,0-2.14-.89-2.14-2.42h5.38c0-2.61-1-4.3-3.17-4.3-2.44,0-3.54,1.82-3.54,4.1s1.23,3.69,3.3,3.69a3.07,3.07,0,0,0,3.31-2.52Zm-4-2a2.16,2.16,0,0,1,2-2.19c1.51,0,2,1.05,2.06,2.19ZM87.88,26.66a3.83,3.83,0,0,0-4.16-3.31c-2.94,0-4.72,2.15-4.72,5.27C79,32.5,81.26,34,83.55,34A4.28,4.28,0,0,0,88,30H86.65c-.46,2.35-2,2.78-2.88,2.78-2.51,0-3.35-1.84-3.35-4.21,0-2.67,1.47-4,3.3-4a2.65,2.65,0,0,1,2.84,2.1Zm2.69,1.94a1.46,1.46,0,0,1,1.69-1.42c1.17,0,1.73.42,1.73,1.2s-.35.84-.65.87l-2,.25a2.21,2.21,0,0,0-2.24,2.31,2.13,2.13,0,0,0,2.31,2.13A3.35,3.35,0,0,0,94,32.74c0,.57.22,1.13,1.31,1.13a2.21,2.21,0,0,0,.68-.14v-.9a2.17,2.17,0,0,1-.41.05c-.25,0-.41-.12-.41-.43V28.21c0-1.89-2.14-2.06-2.73-2.06-1.82,0-3,.69-3,2.45ZM94,31.18c0,1-1.13,1.73-2.28,1.73a1.17,1.17,0,0,1-1.34-1.28c0-.93,1-1.11,1.58-1.2,1.54-.19,1.84-.31,2-.46v1.21Zm9.34-2.46a2.33,2.33,0,0,0-2.58-2.57,2.63,2.63,0,0,0-2.22,1.26h0V26.36H97.3v7.37h1.24v-4c0-2,1.24-2.45,1.94-2.45,1.21,0,1.58.64,1.58,1.93v4.53h1.24v-5Zm2.93-.12a1.46,1.46,0,0,1,1.69-1.42c1.17,0,1.73.42,1.73,1.2s-.35.84-.65.87l-2,.25a2.21,2.21,0,0,0-2.24,2.31A2.13,2.13,0,0,0,107,33.94a3.33,3.33,0,0,0,2.66-1.2c0,.57.21,1.13,1.31,1.13a2.15,2.15,0,0,0,.68-.14v-.9a2.17,2.17,0,0,1-.41.05c-.25,0-.41-.12-.41-.43V28.21c0-1.89-2.14-2.06-2.73-2.06-1.82,0-3,.69-3,2.45Zm3.39,2.58c0,1-1.12,1.73-2.28,1.73A1.17,1.17,0,0,1,106,31.63c0-.93,1-1.11,1.58-1.2,1.54-.19,1.85-.31,2-.46v1.21Zm9.45-7.56h-1.24v3.69l0,.1a2.49,2.49,0,0,0-2.2-1.26c-2,0-3.07,1.61-3.07,3.68,0,1.76.73,4.11,3.24,4.11a2.23,2.23,0,0,0,2.1-1.23h0v1h1.17V23.62ZM113.82,30c0-.94.1-2.75,2-2.75s2,1.92,2,3.12c0,2-1.23,2.48-2,2.48-1.35,0-2-1.23-2-2.85Zm8.07-1.42a1.46,1.46,0,0,1,1.69-1.42c1.17,0,1.73.42,1.73,1.2s-.35.84-.65.87l-2,.25a2.22,2.22,0,0,0-2.24,2.31,2.13,2.13,0,0,0,2.31,2.13,3.33,3.33,0,0,0,2.66-1.2c.05.57.22,1.13,1.31,1.13a2.15,2.15,0,0,0,.68-.14v-.9a2.08,2.08,0,0,1-.41.05c-.25,0-.41-.12-.41-.43V28.21c0-1.89-2.14-2.06-2.73-2.06-1.82,0-3,.69-3,2.45Zm3.39,2.58c0,1-1.12,1.73-2.28,1.73a1.16,1.16,0,0,1-1.33-1.28c0-.93,1-1.11,1.57-1.2,1.54-.19,1.85-.31,2-.46v1.21Z"/><path class="cls-2" d="M174.79,13.23c-.06-1.12-.41-3.23-3.95-3.23-2.45,0-3.47,1.55-3.47,3.13a2.44,2.44,0,0,0,2.15,2.38l2.07.48c1.66.39,2.15.73,2.15,1.78,0,1.45-1.66,1.71-2.64,1.71-1.3,0-2.79-.54-2.79-2.37H167a3.14,3.14,0,0,0,1,2.57,4.08,4.08,0,0,0,3.06,1c1.73,0,4-.67,4-3.06a2.63,2.63,0,0,0-2.3-2.7l-2.88-.66c-.6-.15-1.2-.43-1.2-1.29,0-1.53,1.45-1.77,2.31-1.77,1.14,0,2.44.49,2.5,2.06Zm4.56.81V13h-1.18V11h-1.24v2h-1v1h1V18.9c0,.89.27,1.58,1.49,1.58.13,0,.48-.06.93-.1v-1h-.44c-.25,0-.74,0-.74-.58V14Zm2.31,1.21a1.46,1.46,0,0,1,1.69-1.42c1.17,0,1.73.42,1.73,1.2s-.35.84-.65.87l-2,.25a2.22,2.22,0,0,0-2.24,2.31,2.13,2.13,0,0,0,2.31,2.13,3.35,3.35,0,0,0,2.66-1.2c0,.57.22,1.13,1.31,1.13a2.15,2.15,0,0,0,.68-.14v-.9a2.17,2.17,0,0,1-.41.05c-.25,0-.41-.12-.41-.43V14.86c0-1.89-2.14-2.06-2.73-2.06-1.82,0-3,.69-3,2.45Zm3.39,2.58c0,1-1.12,1.73-2.28,1.73a1.17,1.17,0,0,1-1.34-1.28c0-.93,1-1.11,1.58-1.2,1.54-.19,1.85-.31,2-.46v1.21Zm6-3.79V13h-1.18V11h-1.24v2h-1v1h1V18.9c0,.89.27,1.58,1.5,1.58.12,0,.47-.06.92-.1v-1h-.43c-.25,0-.75,0-.75-.58V14Zm2.48-1h-1.24v7.37h1.24V13Zm0-1.33V10.27h-1.24v1.41Zm7.24,3.43c0-.36-.18-2.31-2.81-2.31-1.45,0-2.79.73-2.79,2.35,0,1,.67,1.54,1.7,1.79l1.44.35c1.06.27,1.46.47,1.46,1.06,0,.82-.8,1.17-1.69,1.17-1.74,0-1.91-.93-2-1.51H195c0,.89.25,2.58,3.17,2.58,1.66,0,2.91-.92,2.91-2.44,0-1-.53-1.56-2.07-1.94l-1.24-.31c-1-.24-1.33-.38-1.33-1,0-.91,1.08-1,1.46-1,1.56,0,1.73.78,1.74,1.24ZM205.18,14V13H204V11h-1.24v2h-1v1h1V18.9c0,.89.27,1.58,1.49,1.58.13,0,.48-.06.93-.1v-1h-.44c-.25,0-.74,0-.74-.58V14Zm2.48-1h-1.24v7.37h1.24V13Zm0-1.33V10.27h-1.24v1.41Zm7.66,3.81a2.66,2.66,0,0,0-2.76-2.69c-2.43,0-3.53,1.82-3.53,4.1s1.22,3.69,3.29,3.69a2.92,2.92,0,0,0,3-2.82h-1.2a1.88,1.88,0,0,1-1.76,1.75c-1.7,0-2-1.56-2-2.83s.49-2.77,2-2.77a1.63,1.63,0,0,1,1.74,1.57Zm6.62-.38c0-.36-.19-2.31-2.82-2.31-1.45,0-2.79.73-2.79,2.35,0,1,.68,1.54,1.71,1.79l1.43.35c1.06.27,1.47.47,1.47,1.06,0,.82-.8,1.17-1.69,1.17-1.75,0-1.92-.93-2-1.51H216.1c0,.89.25,2.58,3.16,2.58,1.67,0,2.92-.92,2.92-2.44,0-1-.54-1.56-2.07-1.94l-1.24-.31c-1-.24-1.34-.38-1.34-1,0-.91,1.09-1,1.47-1,1.56,0,1.73.78,1.74,1.24ZM175.83,26.66a3.83,3.83,0,0,0-4.16-3.31c-2.94,0-4.71,2.15-4.71,5.27,0,3.88,2.25,5.38,4.55,5.38a4.27,4.27,0,0,0,4.42-4H174.6c-.46,2.35-2,2.78-2.88,2.78-2.51,0-3.36-1.84-3.36-4.21,0-2.67,1.49-4,3.31-4a2.63,2.63,0,0,1,2.83,2.1Zm2.69,1.94a1.46,1.46,0,0,1,1.69-1.42c1.17,0,1.73.42,1.73,1.2s-.35.84-.65.87l-2,.25A2.22,2.22,0,0,0,177,31.81a2.13,2.13,0,0,0,2.31,2.13,3.37,3.37,0,0,0,2.67-1.2c0,.57.21,1.13,1.3,1.13a2.21,2.21,0,0,0,.68-.14v-.9a2.17,2.17,0,0,1-.41.05c-.25,0-.41-.12-.41-.43V28.21c0-1.89-2.14-2.06-2.73-2.06-1.82,0-3,.69-3,2.45Zm3.39,2.58c0,1-1.12,1.73-2.28,1.73a1.17,1.17,0,0,1-1.34-1.28c0-.93,1-1.11,1.58-1.2,1.54-.19,1.85-.31,2-.46v1.21Zm9.34-2.46a2.33,2.33,0,0,0-2.58-2.57,2.67,2.67,0,0,0-2.22,1.26h0V26.36h-1.17v7.37h1.24v-4c0-2,1.24-2.45,1.95-2.45,1.21,0,1.57.64,1.57,1.93v4.53h1.24v-5Zm2.93-.12a1.46,1.46,0,0,1,1.69-1.42c1.17,0,1.73.42,1.73,1.2s-.35.84-.64.87l-2.05.25a2.22,2.22,0,0,0-2.24,2.31A2.13,2.13,0,0,0,195,33.94a3.33,3.33,0,0,0,2.66-1.2c.05.57.21,1.13,1.31,1.13a2.15,2.15,0,0,0,.68-.14v-.9a2.08,2.08,0,0,1-.41.05c-.25,0-.41-.12-.41-.43V28.21c0-1.89-2.14-2.06-2.73-2.06-1.82,0-3,.69-3,2.45Zm3.39,2.58c0,1-1.12,1.73-2.28,1.73A1.17,1.17,0,0,1,194,31.63c0-.93,1-1.11,1.58-1.2,1.54-.19,1.85-.31,2-.46v1.21ZM207,23.62h-1.23v3.69l0,.1a2.49,2.49,0,0,0-2.2-1.26c-2,0-3.07,1.61-3.07,3.68,0,1.76.73,4.11,3.24,4.11a2.23,2.23,0,0,0,2.1-1.23h0v1H207V23.62ZM201.77,30c0-.94.1-2.75,2-2.75s2,1.92,2,3.12c0,2-1.22,2.48-2,2.48-1.35,0-2-1.23-2-2.85Zm8.07-1.42a1.47,1.47,0,0,1,1.69-1.42c1.17,0,1.73.42,1.73,1.2s-.35.84-.65.87l-2,.25a2.22,2.22,0,0,0-2.25,2.31,2.13,2.13,0,0,0,2.31,2.13,3.39,3.39,0,0,0,2.67-1.2c0,.57.21,1.13,1.31,1.13a2.14,2.14,0,0,0,.67-.14v-.9a2.08,2.08,0,0,1-.41.05c-.25,0-.41-.12-.41-.43V28.21c0-1.89-2.13-2.06-2.73-2.06-1.81,0-3,.69-3,2.45Zm3.4,2.58c0,1-1.13,1.73-2.29,1.73a1.16,1.16,0,0,1-1.33-1.28c0-.93,1-1.11,1.57-1.2,1.54-.19,1.85-.31,2.05-.46v1.21Z"/></g></svg>