<svg xmlns="http://www.w3.org/2000/svg" viewBox="0 0 30 30"><defs><style>.cls-1{fill:#310e31;}</style></defs><title>ic_setting</title><g id="Title"><path id="Path_45" data-name="Path 45" class="cls-1" d="M24.29,16.22c.05-.4.08-.81.09-1.22s0-.82-.09-1.23l2.64-2.07a.62.62,0,0,0,.14-.8l-2.5-4.32a.63.63,0,0,0-.76-.27L20.7,7.56a9.7,9.7,0,0,0-2.11-1.23L18.13,3a.66.66,0,0,0-.63-.53h-5a.64.64,0,0,0-.62.54l-.47,3.3A9.7,9.7,0,0,0,9.3,7.57L6.19,6.32a.63.63,0,0,0-.76.27l-2.5,4.32a.62.62,0,0,0,.14.8l2.64,2.08c0,.4-.08.81-.09,1.21s0,.83.09,1.23L3.07,18.31a.62.62,0,0,0-.14.8l2.5,4.32a.63.63,0,0,0,.76.27L9.3,22.45a9.7,9.7,0,0,0,2.11,1.23l.46,3.3a.67.67,0,0,0,.63.52h5a.64.64,0,0,0,.62-.54l.47-3.3a9.4,9.4,0,0,0,2.1-1.23l3.11,1.25a.63.63,0,0,0,.77-.27l2.5-4.32a.64.64,0,0,0-.14-.8ZM15,18.58A3.58,3.58,0,1,1,18.57,15,3.57,3.57,0,0,1,15,18.58Z"/></g></svg>