<svg xmlns="http://www.w3.org/2000/svg" xmlns:xlink="http://www.w3.org/1999/xlink" viewBox="0 0 230 44"><defs><style>.cls-1{fill:none;}.cls-2{clip-path:url(#clip-path);}.cls-3,.cls-4{fill:#ed1c24;}.cls-3,.cls-5{fill-rule:evenodd;}</style><clipPath id="clip-path"><rect class="cls-1" x="8.31" y="10" width="213.37" height="24"/></clipPath></defs><title>img_statcan_fip_eng</title><g id="Title"><g class="cls-2"><path class="cls-3" d="M32.58,32.18s-.11-4.06-.11-4.48.33-.54.76-.43,4.2.85,4.2.85-.32-.85-.54-1.39.11-.74.22-.85,4.2-3.63,4.2-3.63l-.64-.32a.49.49,0,0,1-.22-.75c0-.21.65-2.56.65-2.56s-1.73.32-2.16.42a.5.5,0,0,1-.54-.32c-.1-.21-.54-1.28-.54-1.28s-2.15,2.35-2.15,2.46c-.43.32-.86.11-.76-.32S36,14.34,36,14.34l-1.51,1c-.43.21-.54.21-.75-.22s-1.62-3.2-1.62-3.2-1.51,2.88-1.62,3.2-.43.43-.86.22-1.51-1-1.51-1,1.08,4.81,1.08,5.24-.32.64-.65.32l-2.26-2.46s-.43,1.07-.54,1.28a.49.49,0,0,1-.54.32c-.43-.1-2.26-.42-2.26-.42s.75,2.35.86,2.56.11.53-.32.75l-.65.32s4.1,3.52,4.2,3.63.44.22.22.85-.54,1.39-.54,1.39,3.88-.74,4.2-.85.76,0,.76.43-.11,4.48-.11,4.48Z"/><rect class="cls-4" x="8" y="10" width="12" height="24"/><polygon class="cls-3" points="55.9 10.07 44 10 44 34 55.9 34 55.9 10.07"/><path class="cls-5" d="M165.2,13.22c0-1.11-.4-3.22-3.92-3.22-2.44,0-3.46,1.55-3.46,3.13A2.43,2.43,0,0,0,160,15.51L162,16c1.66.39,2.15.73,2.15,1.78,0,1.45-1.66,1.71-2.64,1.71-1.29,0-2.77-.54-2.77-2.37h-1.28a3.11,3.11,0,0,0,1,2.56,4,4,0,0,0,3.05,1c1.72,0,3.94-.67,3.94-3.06a2.63,2.63,0,0,0-2.29-2.7l-2.87-.67c-.59-.14-1.2-.42-1.2-1.28,0-1.53,1.45-1.77,2.3-1.77a2.2,2.2,0,0,1,2.5,2.05Zm4.55.82V13h-1.18V11h-1.24v2h-1v1h1V18.9c0,.89.27,1.58,1.49,1.58.13,0,.48-.06.93-.1v-1h-.44c-.25,0-.74,0-.74-.58V14Zm2.3,1.21a1.46,1.46,0,0,1,1.68-1.42c1.16,0,1.72.42,1.72,1.2s-.35.84-.64.87l-2,.25a2.21,2.21,0,0,0-2.23,2.31,2.11,2.11,0,0,0,2.29,2.13,3.35,3.35,0,0,0,2.66-1.2c0,.57.21,1.13,1.3,1.13a2.14,2.14,0,0,0,.67-.14v-.9a2.08,2.08,0,0,1-.41.05c-.25,0-.4-.12-.4-.43V14.86c0-1.89-2.13-2.06-2.72-2.06-1.81,0-3,.69-3,2.45Zm3.38,2.58c0,1-1.13,1.73-2.28,1.73a1.16,1.16,0,0,1-1.33-1.28c0-.93,1-1.11,1.57-1.2,1.53-.19,1.84-.31,2-.46Zm6-3.79V13h-1.18V11H179v2h-1v1h1V18.9c0,.89.26,1.58,1.48,1.58.13,0,.48-.06.93-.1v-1H181c-.25,0-.74,0-.74-.58V14Zm2.47-1h-1.24v7.37h1.24Zm0-2.74h-1.24v1.41h1.24Zm7.2,4.84c0-.36-.18-2.31-2.8-2.31-1.45,0-2.78.73-2.78,2.35,0,1,.68,1.54,1.7,1.79l1.43.35c1.05.27,1.46.47,1.46,1.06,0,.82-.8,1.17-1.69,1.17-1.73,0-1.9-.93-1.94-1.51h-1.2c.05.89.26,2.58,3.16,2.58,1.65,0,2.9-.91,2.9-2.44,0-1-.53-1.56-2.06-1.94l-1.23-.31c-1-.24-1.34-.38-1.34-1,0-.91,1.08-1,1.46-1,1.56,0,1.73.78,1.74,1.24ZM195.46,14V13h-1.18V11h-1.23v2h-1v1h1V18.9c0,.89.26,1.58,1.48,1.58.13,0,.48-.06.93-.1v-1H195c-.25,0-.74,0-.74-.58V14Zm2.47-1h-1.24v7.37h1.24Zm0-2.74h-1.24v1.41h1.24ZM205.79,13h-1.16v1.05h0a2.48,2.48,0,0,0-2.19-1.26c-1.95,0-3.06,1.61-3.06,3.68,0,1.76.73,4.11,3.23,4.11a2.19,2.19,0,0,0,1.95-1h0v3.7h1.23Zm-1.18,4c0,2-1.22,2.48-2,2.48-1.35,0-2-1.23-2-2.84,0-.95.1-2.76,2-2.76s2,1.92,2,3.12m8.9,3.34V13h-1.23v4.06c0,1.07-.46,2.45-2,2.45-.8,0-1.41-.41-1.41-1.62V13h-1.24v5.3A2.16,2.16,0,0,0,210,20.59a2.41,2.41,0,0,0,2.32-1.31l0,0v1.07Zm6.84-2.31a1.85,1.85,0,0,1-1.89,1.45c-1.41,0-2.13-.89-2.13-2.42h5.36c0-2.61-1-4.3-3.16-4.3-2.42,0-3.52,1.82-3.52,4.1s1.22,3.69,3.28,3.69a3.14,3.14,0,0,0,2-.51,3.19,3.19,0,0,0,1.3-2Zm-4-2a2.16,2.16,0,0,1,2-2.19c1.5,0,2,1.05,2,2.19ZM166.24,26.66a3.81,3.81,0,0,0-4.13-3.31c-2.93,0-4.7,2.15-4.7,5.27,0,3.88,2.24,5.38,4.53,5.38a4.25,4.25,0,0,0,4.4-4H165c-.46,2.35-2,2.78-2.87,2.78-2.5,0-3.34-1.84-3.34-4.21,0-2.67,1.47-4,3.3-4a2.64,2.64,0,0,1,2.82,2.1Zm2.68,1.94a1.46,1.46,0,0,1,1.68-1.42c1.17,0,1.73.42,1.73,1.2s-.35.84-.65.87l-2,.25a2.21,2.21,0,0,0-2.23,2.31,2.12,2.12,0,0,0,2.3,2.13,3.34,3.34,0,0,0,2.65-1.2c0,.57.21,1.13,1.3,1.13a2.21,2.21,0,0,0,.68-.14v-.9a2.27,2.27,0,0,1-.41.05c-.25,0-.41-.12-.41-.43V28.21c0-1.89-2.13-2.06-2.72-2.06-1.81,0-3,.69-3,2.45Zm3.38,2.58c0,1-1.12,1.73-2.27,1.73a1.17,1.17,0,0,1-1.34-1.28c0-.93,1-1.11,1.58-1.2,1.53-.19,1.83-.31,2-.46Zm9.29-2.46A2.32,2.32,0,0,0,179,26.15a2.67,2.67,0,0,0-2.22,1.26h0V26.36h-1.17v7.37h1.23v-4c0-2,1.24-2.45,1.94-2.45,1.21,0,1.57.64,1.57,1.92v4.54h1.23v-5Zm2.92-.12a1.46,1.46,0,0,1,1.68-1.42c1.16,0,1.73.42,1.73,1.2s-.36.84-.65.87l-2,.25A2.21,2.21,0,0,0,183,31.81a2.12,2.12,0,0,0,2.3,2.13,3.34,3.34,0,0,0,2.65-1.2c0,.57.21,1.13,1.3,1.13a2.08,2.08,0,0,0,.67-.14v-.9a2.08,2.08,0,0,1-.4.05c-.26,0-.41-.12-.41-.43V28.21c0-1.89-2.13-2.06-2.72-2.06-1.81,0-3,.69-3,2.45Zm3.38,2.58c0,1-1.12,1.73-2.27,1.73a1.17,1.17,0,0,1-1.34-1.28c0-.93,1-1.11,1.57-1.2,1.53-.19,1.84-.31,2-.46Zm9.4-7.56h-1.23v3.69l0,.1a2.45,2.45,0,0,0-2.19-1.26c-1.94,0-3.05,1.61-3.05,3.68,0,1.76.73,4.11,3.22,4.11a2.21,2.21,0,0,0,2.09-1.23h0v1h1.16ZM192.07,30c0-.94.09-2.75,2-2.75s2,1.92,2,3.12c0,2-1.22,2.48-2,2.48-1.34,0-2-1.23-2-2.85m8-1.42a1.46,1.46,0,0,1,1.68-1.42c1.16,0,1.72.42,1.72,1.2s-.35.84-.64.87l-2,.25a2.21,2.21,0,0,0-2.23,2.31,2.12,2.12,0,0,0,2.3,2.13,3.34,3.34,0,0,0,2.65-1.2c0,.57.21,1.13,1.3,1.13a2.14,2.14,0,0,0,.67-.14v-.9a2.08,2.08,0,0,1-.4.05c-.26,0-.41-.12-.41-.43V28.21c0-1.89-2.13-2.06-2.72-2.06-1.81,0-3,.69-3,2.45Zm3.38,2.58c0,1-1.13,1.73-2.27,1.73a1.17,1.17,0,0,1-1.34-1.28c0-.93,1-1.11,1.57-1.2,1.53-.19,1.84-.31,2-.46v1.21Z"/><path class="cls-5" d="M87,13.22c0-1.11-.4-3.22-3.92-3.22-2.44,0-3.46,1.55-3.46,3.13a2.43,2.43,0,0,0,2.14,2.38l2.06.48c1.66.39,2.15.73,2.15,1.78,0,1.45-1.66,1.71-2.64,1.71-1.29,0-2.77-.54-2.77-2.37H79.24a3.11,3.11,0,0,0,1,2.56,4,4,0,0,0,3,1c1.72,0,3.94-.67,3.94-3.06A2.63,2.63,0,0,0,85,14.89l-2.87-.67c-.59-.14-1.19-.42-1.19-1.28,0-1.53,1.44-1.77,2.29-1.77a2.2,2.2,0,0,1,2.5,2.05Zm4.55.82V13H90.33V11H89.09v2h-1v1h1V18.9c0,.89.27,1.58,1.49,1.58.13,0,.48-.06.93-.1v-1h-.44c-.25,0-.74,0-.74-.58V14Zm2.3,1.21a1.46,1.46,0,0,1,1.68-1.42c1.16,0,1.72.42,1.72,1.2s-.35.84-.64.87l-2,.25a2.21,2.21,0,0,0-2.23,2.31,2.12,2.12,0,0,0,2.3,2.13,3.3,3.3,0,0,0,2.64-1.2c0,.57.22,1.13,1.31,1.13a2.14,2.14,0,0,0,.67-.14v-.9a2.08,2.08,0,0,1-.41.05c-.25,0-.4-.12-.4-.43V14.86c0-1.89-2.13-2.06-2.72-2.06-1.81,0-3,.69-3,2.45Zm3.37,2.58c0,1-1.12,1.73-2.27,1.73a1.16,1.16,0,0,1-1.33-1.28c0-.93,1-1.11,1.57-1.2,1.53-.19,1.84-.31,2-.46Zm6-3.79V13H102V11h-1.23v2h-1v1h1V18.9c0,.89.26,1.58,1.48,1.58.13,0,.48-.06.93-.1v-1h-.44c-.25,0-.74,0-.74-.58V14Zm2.47-1h-1.24v7.37h1.24Zm0-2.74h-1.24v1.41h1.24Zm7.2,4.84c0-.36-.18-2.31-2.8-2.31-1.45,0-2.78.73-2.78,2.35,0,1,.67,1.54,1.7,1.79l1.43.35c1,.27,1.46.47,1.46,1.06,0,.82-.8,1.17-1.69,1.17-1.73,0-1.9-.93-1.94-1.51h-1.2c0,.89.26,2.58,3.16,2.58,1.65,0,2.9-.91,2.9-2.44,0-1-.53-1.56-2.06-1.94l-1.23-.31c-1-.24-1.34-.38-1.34-1,0-.91,1.08-1,1.46-1,1.56,0,1.72.78,1.74,1.24ZM117.22,14V13H116V11h-1.23v2h-1v1h1V18.9c0,.89.26,1.58,1.48,1.58.13,0,.48-.06.93-.1v-1h-.44c-.25,0-.74,0-.74-.58V14Zm2.47-1h-1.24v7.37h1.24Zm0-2.74h-1.24v1.41h1.24Zm7.62,5.22a2.66,2.66,0,0,0-2.75-2.69c-2.42,0-3.51,1.82-3.51,4.1s1.21,3.69,3.27,3.69a2.91,2.91,0,0,0,3-2.82h-1.19a1.87,1.87,0,0,1-1.75,1.75c-1.7,0-2-1.56-2-2.83s.49-2.77,2-2.77a1.63,1.63,0,0,1,1.74,1.57Zm6.59-.38c0-.36-.18-2.31-2.8-2.31-1.45,0-2.78.73-2.78,2.35,0,1,.67,1.54,1.7,1.79l1.43.35c1.05.27,1.46.47,1.46,1.06,0,.82-.8,1.17-1.69,1.17-1.73,0-1.9-.93-1.95-1.51h-1.19c0,.89.26,2.58,3.16,2.58,1.65,0,2.9-.91,2.9-2.44,0-1-.53-1.56-2.06-1.94l-1.24-.31c-1-.24-1.33-.38-1.33-1,0-.91,1.08-1,1.46-1,1.56,0,1.73.78,1.74,1.24ZM88,26.66a3.81,3.81,0,0,0-4.13-3.31c-2.93,0-4.7,2.15-4.7,5.27,0,3.88,2.24,5.38,4.53,5.38a4.26,4.26,0,0,0,4.4-4H86.78c-.46,2.35-2,2.78-2.87,2.78-2.5,0-3.34-1.84-3.34-4.21,0-2.67,1.48-4,3.3-4a2.62,2.62,0,0,1,2.81,2.1Zm2.68,1.94a1.46,1.46,0,0,1,1.68-1.42c1.17,0,1.73.42,1.73,1.2s-.36.84-.65.87l-2,.25a2.21,2.21,0,0,0-2.23,2.31,2.12,2.12,0,0,0,2.3,2.13,3.34,3.34,0,0,0,2.65-1.2c0,.57.21,1.13,1.3,1.13a2.14,2.14,0,0,0,.67-.14v-.9a2,2,0,0,1-.4.05c-.25,0-.41-.12-.41-.43V28.21c0-1.89-2.13-2.06-2.72-2.06-1.81,0-3,.69-3,2.45Zm3.38,2.58c0,1-1.12,1.73-2.27,1.73a1.16,1.16,0,0,1-1.33-1.28c0-.93,1-1.11,1.56-1.2,1.53-.19,1.84-.31,2-.46Zm9.29-2.46a2.32,2.32,0,0,0-2.56-2.57,2.67,2.67,0,0,0-2.22,1.26h0V26.36H97.38v7.37h1.23v-4c0-2,1.24-2.45,1.94-2.45,1.2,0,1.57.64,1.57,1.92v4.54h1.23v-5Zm2.92-.12A1.46,1.46,0,0,1,108,27.18c1.16,0,1.73.42,1.73,1.2s-.36.84-.65.87l-2,.25a2.21,2.21,0,0,0-2.23,2.31,2.12,2.12,0,0,0,2.3,2.13,3.34,3.34,0,0,0,2.65-1.2c0,.57.21,1.13,1.3,1.13a2.14,2.14,0,0,0,.67-.14v-.9a2.08,2.08,0,0,1-.4.05c-.26,0-.41-.12-.41-.43V28.21c0-1.89-2.13-2.06-2.72-2.06-1.81,0-3,.69-3,2.45Zm3.38,2.58c0,1-1.12,1.73-2.27,1.73A1.17,1.17,0,0,1,106,31.63c0-.93,1-1.11,1.57-1.2,1.53-.19,1.84-.31,2-.46Zm9.4-7.56h-1.23v3.69l0,.1a2.45,2.45,0,0,0-2.18-1.26c-2,0-3.06,1.61-3.06,3.68,0,1.76.73,4.11,3.22,4.11a2.21,2.21,0,0,0,2.09-1.23h0v1h1.16ZM113.82,30c0-.94.1-2.75,2-2.75s2,1.92,2,3.12c0,2-1.22,2.48-2,2.48-1.34,0-2-1.23-2-2.85m8-1.42a1.46,1.46,0,0,1,1.68-1.42c1.16,0,1.72.42,1.72,1.2s-.35.84-.64.87l-2,.25a2.21,2.21,0,0,0-2.23,2.31,2.12,2.12,0,0,0,2.3,2.13,3.34,3.34,0,0,0,2.65-1.2c0,.57.21,1.13,1.3,1.13a2.14,2.14,0,0,0,.67-.14v-.9a2.08,2.08,0,0,1-.4.05c-.26,0-.41-.12-.41-.43V28.21c0-1.89-2.13-2.06-2.72-2.06-1.81,0-3,.69-3,2.45Zm3.38,2.58c0,1-1.13,1.73-2.27,1.73a1.16,1.16,0,0,1-1.33-1.28c0-.93,1-1.11,1.56-1.2,1.53-.19,1.84-.31,2-.46Z"/></g></g></svg>